<svg width="48" height="40" viewBox="0 0 48 40" fill="none" xmlns="http://www.w3.org/2000/svg">
<path d="M35.8571 37.1818C36.1003 37.1804 36.3358 37.0968 36.5255 36.9447C36.9351 36.5782 47.7143 27.8901 47.7143 18.8571C47.7143 15.7124 46.4651 12.6965 44.2414 10.4729C42.0178 8.24923 39.0019 7 35.8571 7C32.7124 7 29.6965 8.24923 27.4729 10.4729C25.2492 12.6965 24 15.7124 24 18.8571C24 27.8901 34.7792 36.5782 35.1888 36.9447C35.3785 37.0968 35.614 37.1804 35.8571 37.1818ZM26.1558 18.8571C26.1558 16.2842 27.1779 13.8166 28.9973 11.9973C30.8166 10.1779 33.2842 9.15584 35.8571 9.15584C38.4301 9.15584 40.8976 10.1779 42.717 11.9973C44.5363 13.8166 45.5584 16.2842 45.5584 18.8571C45.5584 25.6481 38.1531 32.6653 35.8571 34.6918C33.5612 32.6653 26.1558 25.6481 26.1558 18.8571Z" fill="black"/>
<path d="M41.2468 18.8571C41.2468 17.7912 40.9307 16.7492 40.3384 15.8628C39.7462 14.9765 38.9045 14.2857 37.9197 13.8778C36.9348 13.4699 35.8512 13.3631 34.8057 13.5711C33.7602 13.7791 32.7999 14.2924 32.0461 15.0461C31.2924 15.7999 30.7791 16.7602 30.5711 17.8057C30.3631 18.8512 30.4699 19.9348 30.8778 20.9197C31.2857 21.9045 31.9765 22.7462 32.8628 23.3384C33.7492 23.9307 34.7912 24.2468 35.8571 24.2468C37.2866 24.2468 38.6574 23.6789 39.6682 22.6682C40.6789 21.6574 41.2468 20.2866 41.2468 18.8571ZM32.6234 18.8571C32.6234 18.2176 32.813 17.5923 33.1684 17.0606C33.5237 16.5288 34.0287 16.1143 34.6196 15.8695C35.2105 15.6248 35.8607 15.5607 36.488 15.6855C37.1153 15.8103 37.6915 16.1183 38.1438 16.5705C38.596 17.0228 38.904 17.599 39.0288 18.2263C39.1535 18.8536 39.0895 19.5038 38.8448 20.0947C38.6 20.6855 38.1855 21.1906 37.6537 21.5459C37.1219 21.9013 36.4967 22.0909 35.8571 22.0909C34.9995 22.0909 34.177 21.7502 33.5705 21.1438C32.9641 20.5373 32.6234 19.7148 32.6234 18.8571Z" fill="black"/>
<g opacity="0.47">
<path d="M23.8571 30.1818C24.1003 30.1804 24.3358 30.0968 24.5255 29.9447C24.9351 29.5782 35.7143 20.8901 35.7143 11.8571C35.7143 8.71243 34.4651 5.69652 32.2414 3.47288C30.0178 1.24923 27.0019 0 23.8571 0C20.7124 0 17.6965 1.24923 15.4729 3.47288C13.2492 5.69652 12 8.71243 12 11.8571C12 20.8901 22.7792 29.5782 23.1888 29.9447C23.3785 30.0968 23.614 30.1804 23.8571 30.1818ZM14.1558 11.8571C14.1558 9.2842 15.1779 6.81664 16.9973 4.99729C18.8166 3.17794 21.2842 2.15584 23.8571 2.15584C26.4301 2.15584 28.8976 3.17794 30.717 4.99729C32.5363 6.81664 33.5584 9.2842 33.5584 11.8571C33.5584 18.6481 26.1531 25.6653 23.8571 27.6918C21.5612 25.6653 14.1558 18.6481 14.1558 11.8571Z" fill="black"/>
<path d="M29.2468 11.8571C29.2468 10.7912 28.9307 9.74915 28.3384 8.86284C27.7462 7.97652 26.9045 7.28572 25.9197 6.87779C24.9348 6.46986 23.8512 6.36313 22.8057 6.57109C21.7602 6.77905 20.7999 7.29236 20.0461 8.04611C19.2924 8.79986 18.7791 9.7602 18.5711 10.8057C18.3631 11.8512 18.4699 12.9348 18.8778 13.9197C19.2857 14.9045 19.9765 15.7462 20.8628 16.3384C21.7492 16.9307 22.7912 17.2468 23.8571 17.2468C25.2866 17.2468 26.6574 16.6789 27.6682 15.6682C28.6789 14.6574 29.2468 13.2866 29.2468 11.8571ZM20.6234 11.8571C20.6234 11.2176 20.813 10.5923 21.1684 10.0606C21.5237 9.52877 22.0287 9.11429 22.6196 8.86953C23.2105 8.62478 23.8607 8.56074 24.488 8.68551C25.1153 8.81029 25.6915 9.11827 26.1438 9.57052C26.596 10.0228 26.904 10.599 27.0288 11.2263C27.1535 11.8536 27.0895 12.5038 26.8448 13.0947C26.6 13.6855 26.1855 14.1906 25.6537 14.5459C25.1219 14.9013 24.4967 15.0909 23.8571 15.0909C22.9995 15.0909 22.177 14.7502 21.5705 14.1438C20.9641 13.5373 20.6234 12.7148 20.6234 11.8571Z" fill="black"/>
</g>
<g opacity="0.59">
<path d="M11.8571 39.1818C12.1003 39.1804 12.3358 39.0968 12.5255 38.9447C12.9351 38.5782 23.7143 29.8901 23.7143 20.8571C23.7143 17.7124 22.4651 14.6965 20.2414 12.4729C18.0178 10.2492 15.0019 9 11.8571 9C8.71243 9 5.69652 10.2492 3.47288 12.4729C1.24923 14.6965 0 17.7124 0 20.8571C0 29.8901 10.7792 38.5782 11.1888 38.9447C11.3785 39.0968 11.614 39.1804 11.8571 39.1818ZM2.15584 20.8571C2.15584 18.2842 3.17794 15.8166 4.99729 13.9973C6.81664 12.1779 9.2842 11.1558 11.8571 11.1558C14.4301 11.1558 16.8976 12.1779 18.717 13.9973C20.5363 15.8166 21.5584 18.2842 21.5584 20.8571C21.5584 27.6481 14.1531 34.6653 11.8571 36.6918C9.56117 34.6653 2.15584 27.6481 2.15584 20.8571Z" fill="black"/>
<path d="M17.2468 20.8571C17.2468 19.7912 16.9307 18.7492 16.3384 17.8628C15.7462 16.9765 14.9045 16.2857 13.9197 15.8778C12.9348 15.4699 11.8512 15.3631 10.8057 15.5711C9.7602 15.7791 8.79986 16.2924 8.04611 17.0461C7.29236 17.7999 6.77905 18.7602 6.57109 19.8057C6.36313 20.8512 6.46986 21.9348 6.87779 22.9197C7.28572 23.9045 7.97652 24.7462 8.86284 25.3384C9.74915 25.9307 10.7912 26.2468 11.8571 26.2468C13.2866 26.2468 14.6574 25.6789 15.6682 24.6682C16.6789 23.6574 17.2468 22.2866 17.2468 20.8571ZM8.62338 20.8571C8.62338 20.2176 8.81303 19.5923 9.16836 19.0606C9.5237 18.5288 10.0287 18.1143 10.6196 17.8695C11.2105 17.6248 11.8607 17.5607 12.488 17.6855C13.1153 17.8103 13.6915 18.1183 14.1438 18.5705C14.596 19.0228 14.904 19.599 15.0288 20.2263C15.1535 20.8536 15.0895 21.5038 14.8448 22.0947C14.6 22.6855 14.1855 23.1906 13.6537 23.5459C13.1219 23.9013 12.4967 24.0909 11.8571 24.0909C10.9995 24.0909 10.177 23.7502 9.57052 23.1438C8.96408 22.5373 8.62338 21.7148 8.62338 20.8571Z" fill="black"/>
</g>
</svg>
