<svg width="46" height="46" viewBox="0 0 46 46" fill="none" xmlns="http://www.w3.org/2000/svg">
<path d="M23 42.1818C23.3076 42.18 23.6055 42.0743 23.8455 41.8818C24.3636 41.4182 38 30.4273 38 19C38 15.0218 36.4196 11.2064 33.6066 8.3934C30.7936 5.58035 26.9782 4 23 4C19.0218 4 15.2064 5.58035 12.3934 8.3934C9.58035 11.2064 8 15.0218 8 19C8 30.4273 21.6364 41.4182 22.1545 41.8818C22.3945 42.0743 22.6924 42.18 23 42.1818ZM10.7273 19C10.7273 15.7451 12.0203 12.6235 14.3219 10.3219C16.6235 8.02029 19.7451 6.72727 23 6.72727C26.2549 6.72727 29.3765 8.02029 31.6781 10.3219C33.9797 12.6235 35.2727 15.7451 35.2727 19C35.2727 27.5909 25.9045 36.4682 23 39.0318C20.0955 36.4682 10.7273 27.5909 10.7273 19Z" fill="black"/>
<path d="M29.8183 19.0001C29.8183 17.6516 29.4184 16.3333 28.6692 15.2121C27.92 14.0908 26.8551 13.2169 25.6093 12.7009C24.3634 12.1848 22.9925 12.0498 21.6699 12.3129C20.3473 12.576 19.1324 13.2253 18.1789 14.1789C17.2253 15.1324 16.576 16.3473 16.3129 17.6699C16.0498 18.9925 16.1848 20.3634 16.7009 21.6093C17.2169 22.8551 18.0908 23.92 19.2121 24.6692C20.3333 25.4184 21.6516 25.8183 23.0001 25.8183C24.8084 25.8183 26.5426 25.0999 27.8213 23.8213C29.0999 22.5426 29.8183 20.8084 29.8183 19.0001ZM18.9092 19.0001C18.9092 18.191 19.1491 17.4 19.5986 16.7273C20.0481 16.0545 20.687 15.5302 21.4345 15.2206C22.1821 14.9109 23.0046 14.8299 23.7982 14.9878C24.5917 15.1456 25.3207 15.5352 25.8928 16.1074C26.4649 16.6795 26.8545 17.4084 27.0124 18.202C27.1702 18.9955 27.0892 19.8181 26.7796 20.5656C26.4699 21.3131 25.9456 21.952 25.2729 22.4015C24.6001 22.8511 23.8092 23.091 23.0001 23.091C21.9151 23.091 20.8746 22.66 20.1074 21.8928C19.3402 21.1256 18.9092 20.085 18.9092 19.0001Z" fill="black"/>
</svg>
