<svg width="49" height="30" viewBox="0 0 49 30" fill="none" xmlns="http://www.w3.org/2000/svg">
<path fill-rule="evenodd" clip-rule="evenodd" d="M6.65387 7.75804L4.27922 12.3779L0.643311 10.5354L6.11952 0.334961L16.5334 6.07952L14.6134 9.63714L9.48441 6.69254C10.2822 10.113 11.6287 14.3651 13.5344 18.0774C15.9922 22.8652 19.0787 26.1827 22.6358 26.5061C23.7048 26.6033 24.514 26.3798 25.1803 25.9618C25.8721 25.5277 26.5035 24.8237 27.0868 23.8228C28.279 21.777 29.0644 18.8708 29.8556 15.6429C29.9318 15.332 30.008 15.0181 30.0847 14.7022C30.7773 11.851 31.5093 8.83791 32.5932 6.43091C33.7964 3.75898 35.6557 1.34368 38.8429 1.00818C41.0631 0.774477 42.9084 1.26206 44.36 2.32866C45.7826 3.37394 46.6898 4.87381 47.2593 6.4363C48.174 8.94613 48.3134 11.8768 48.1449 14.2078C48.6775 14.8219 48.9999 15.6233 48.9999 16.5001C48.9999 18.4331 47.4329 20.0001 45.4999 20.0001C43.5669 20.0001 41.9999 18.4331 41.9999 16.5001C41.9999 14.668 43.4075 13.1647 45.2003 13.0127C45.2456 11.188 45.056 9.15189 44.4406 7.46357C44.0018 6.2594 43.384 5.33427 42.5837 4.74622C41.8123 4.17948 40.7368 3.8254 39.157 3.9917C37.5942 4.1562 36.391 5.3034 35.3286 7.66271C34.3667 9.79891 33.7024 12.527 32.9921 15.4443C32.9184 15.7467 32.8443 16.0511 32.7693 16.357C31.998 19.5041 31.1271 22.8479 29.6788 25.3333C28.9417 26.598 28.0067 27.73 26.7747 28.503C25.5171 29.292 24.0451 29.6466 22.3641 29.4938C17.1212 29.0172 13.3744 24.3347 10.8655 19.4475C8.89753 15.6139 7.50549 11.2988 6.65387 7.75804Z" fill="black"/>
</svg>
