<svg width="23" height="23" viewBox="0 0 23 23" fill="none" xmlns="http://www.w3.org/2000/svg">
<path d="M17.2231 5.66553C16.2307 5.66553 15.4262 4.86104 15.4262 3.86865C15.4262 2.87627 16.2307 2.07178 17.2231 2.07178C18.2154 2.07178 19.0199 2.87627 19.0199 3.86865C19.0199 4.86104 18.2154 5.66553 17.2231 5.66553Z" fill="#D9D9D9"/>
<path d="M17.2231 6.20459C18.5114 6.20459 19.559 5.15701 19.559 3.86865C19.559 2.58029 18.5114 1.53271 17.2231 1.53271C15.9347 1.53271 14.8871 2.58029 14.8871 3.86865C14.8871 5.15701 15.9347 6.20459 17.2231 6.20459ZM17.2231 2.61084C17.9166 2.61084 18.4809 3.17506 18.4809 3.86865C18.4809 4.56225 17.9166 5.12646 17.2231 5.12646C16.5295 5.12646 15.9652 4.56225 15.9652 3.86865C15.9652 3.17506 16.5295 2.61084 17.2231 2.61084Z" fill="black"/>
<path d="M6.98446 20.4232C7.87571 19.4978 9.3779 17.7315 9.71212 16.8295C9.84688 16.4665 9.95829 15.0039 9.97805 13.8682C9.97985 13.8035 9.98524 13.7389 9.99782 13.676C10.0212 13.5574 10.4848 11.2879 11.6851 9.08495L10.8909 9.32394L9.11016 11.8467C8.74719 12.3625 8.01407 12.4613 7.52352 12.0408C7.09587 11.6742 7.04915 11.0256 7.37438 10.5674L8.37344 9.15144C9.14071 8.06433 10.2512 7.26651 11.5252 6.88378C12.6141 6.55675 13.7766 6.51003 14.8727 6.81011C16.56 7.2737 17.9256 8.43269 18.6606 9.99058L18.7324 10.1451L20.7198 9.26105C21.2588 9.02206 21.9147 9.2287 22.1699 9.76058C22.434 10.3104 22.1914 10.9681 21.6362 11.2142L18.6426 12.5439C18.5006 12.6068 18.3515 12.6374 18.2059 12.6374C17.8016 12.6374 17.4135 12.4074 17.2302 12.0175L16.7091 10.9088C16.5654 10.6051 16.3821 10.3248 16.1683 10.075C15.3831 11.27 14.7434 12.6392 14.3822 13.4801C15.7137 14.454 16.5277 15.5106 16.569 15.5627C16.7577 15.8107 16.8313 16.1287 16.7684 16.4324C16.7487 16.5294 16.2761 18.8222 15.4082 21.5337C15.2627 21.9919 14.8386 22.283 14.3822 22.283C14.2313 22.283 14.0767 22.2507 13.9294 22.1824C13.4281 21.9524 13.2016 21.3576 13.3688 20.8311C13.9563 18.9839 14.3606 17.3146 14.5439 16.5078C14.1576 16.0856 13.4334 15.374 12.4955 14.8116C12.3356 14.7164 12.208 14.5834 12.1199 14.4307C12.0894 15.3345 11.9977 16.869 11.7336 17.5824C11.1281 19.2139 8.77055 21.6792 8.50462 21.9542C8.08235 22.3908 7.37798 22.3944 6.95212 21.9506C6.54602 21.5265 6.57657 20.8455 6.98446 20.4232Z" fill="#D9D9D9"/>
<path d="M6.98446 20.4232C7.87571 19.4978 9.3779 17.7315 9.71212 16.8295C9.84688 16.4665 9.95829 15.0039 9.97805 13.8682C9.97985 13.8035 9.98524 13.7389 9.99782 13.676C10.0212 13.5574 10.4848 11.2879 11.6851 9.08495L10.8909 9.32394L9.11016 11.8467C8.74719 12.3625 8.01407 12.4613 7.52352 12.0408C7.09587 11.6742 7.04915 11.0256 7.37438 10.5674L8.37344 9.15144C9.14071 8.06433 10.2512 7.26651 11.5252 6.88378C12.6141 6.55675 13.7766 6.51003 14.8727 6.81011C16.56 7.2737 17.9256 8.43269 18.6606 9.99058L18.7324 10.1451L20.7198 9.26105C21.2588 9.02206 21.9147 9.2287 22.1699 9.76058C22.434 10.3104 22.1914 10.9681 21.6362 11.2142L18.6426 12.5439C18.5006 12.6068 18.3515 12.6374 18.2059 12.6374C17.8016 12.6374 17.4135 12.4074 17.2302 12.0175L16.7091 10.9088C16.5654 10.6051 16.3821 10.3248 16.1683 10.075C15.3831 11.27 14.7434 12.6392 14.3822 13.4801C15.7137 14.454 16.5277 15.5106 16.569 15.5627C16.7577 15.8107 16.8313 16.1287 16.7684 16.4324C16.7487 16.5294 16.2761 18.8222 15.4082 21.5337C15.2627 21.9919 14.8386 22.283 14.3822 22.283C14.2313 22.283 14.0767 22.2507 13.9294 22.1824C13.4281 21.9524 13.2016 21.3576 13.3688 20.8311C13.9563 18.9839 14.3606 17.3146 14.5439 16.5078C14.1576 16.0856 13.4334 15.374 12.4955 14.8116C12.3356 14.7164 12.208 14.5834 12.1199 14.4307C12.0894 15.3345 11.9977 16.869 11.7336 17.5824C11.1281 19.2139 8.77055 21.6792 8.50462 21.9542C8.08235 22.3908 7.37798 22.3944 6.95212 21.9506C6.54602 21.5265 6.57657 20.8455 6.98446 20.4232Z" fill="#D9D9D9"/>
<path d="M14.3822 22.8203C15.0884 22.8203 15.7065 22.3675 15.9221 21.6955C16.7972 18.9588 17.277 16.6355 17.2967 16.5385C17.3902 16.0802 17.2823 15.6041 16.9984 15.2321C16.9661 15.189 16.2402 14.2474 15.0488 13.3059C15.3166 12.7075 15.7155 11.8792 16.1898 11.067C16.2006 11.0903 16.2132 11.1137 16.224 11.137L16.7451 12.2457C17.011 12.8099 17.5842 13.1747 18.2095 13.1747C18.4359 13.1747 18.657 13.128 18.8654 13.0345L21.859 11.7049C22.2615 11.5252 22.5688 11.1981 22.7197 10.7849C22.8724 10.3716 22.8509 9.92415 22.6586 9.52525C22.283 8.7454 21.3163 8.4058 20.5041 8.76697L18.9894 9.4408C18.2742 8.1147 17.1242 7.08689 15.7155 6.52267C14.3696 5.98361 12.8638 5.91712 11.4748 6.334C10.0212 6.78142 8.73821 7.70861 7.86133 8.94666L6.90899 10.2907C6.65922 10.6447 6.56219 11.0724 6.63586 11.4982C6.70954 11.9241 6.94493 12.296 7.29711 12.544C7.62055 12.7722 8.01407 12.8728 8.40578 12.8297C8.70227 12.7974 8.9161 12.5314 8.88375 12.2349C8.85141 11.9385 8.58367 11.7264 8.28899 11.757C8.15781 11.7713 8.02664 11.7372 7.91883 11.6617C7.80203 11.5791 7.72297 11.4551 7.69781 11.3131C7.67266 11.1712 7.705 11.0292 7.78946 10.9106L8.74 9.56658C9.48032 8.52619 10.562 7.74275 11.7857 7.3672C12.9375 7.0222 14.1917 7.07791 15.313 7.52533C16.5762 8.03025 17.5914 8.98798 18.1718 10.2188L18.2455 10.3734C18.3713 10.6393 18.6839 10.7543 18.9516 10.6357L20.939 9.75166C21.2247 9.62408 21.5607 9.73189 21.6847 9.99244C21.7494 10.1254 21.7566 10.2745 21.7045 10.4129C21.6541 10.5513 21.5517 10.6609 21.417 10.7202L18.4234 12.0499C18.161 12.1667 17.8376 12.0427 17.7172 11.7875L17.1961 10.6788C17.0362 10.3392 16.8277 10.0176 16.578 9.7247C16.4684 9.59533 16.303 9.52705 16.1341 9.53603C15.9652 9.54681 15.8107 9.63665 15.7173 9.77861C14.9266 10.9807 14.2852 12.3392 13.8863 13.2663C13.7874 13.4981 13.8611 13.7659 14.0641 13.915C15.3363 14.844 16.1072 15.8467 16.1395 15.888C16.2348 16.012 16.2707 16.1701 16.2384 16.3228C16.2186 16.4181 15.7514 18.6857 14.8925 21.3685C14.8206 21.5931 14.614 21.744 14.3786 21.744C14.3013 21.744 14.2241 21.726 14.1504 21.6937C13.9096 21.5823 13.791 21.2768 13.8791 20.9965C14.4702 19.1385 14.8763 17.462 15.0668 16.6283C15.1063 16.4558 15.0578 16.2761 14.9392 16.1449C14.481 15.6454 13.7335 14.9285 12.7722 14.3499C12.517 14.1971 12.1864 14.2798 12.0319 14.5349C11.8809 14.7883 11.9636 15.1189 12.2188 15.2735C12.9681 15.7227 13.579 16.2833 13.9527 16.6678C13.7479 17.5483 13.3741 19.0361 12.853 20.6677C12.5979 21.4709 12.9627 22.3334 13.7012 22.6712C13.9204 22.77 14.1486 22.8203 14.3822 22.8203Z" fill="black"/>
<path d="M7.73015 22.8203C8.15242 22.8203 8.57648 22.6549 8.89273 22.3279C9.34015 21.8643 11.6078 19.4691 12.2403 17.7692C12.3212 17.5518 12.3894 17.2769 12.4469 16.9283C12.4955 16.6354 12.2978 16.3569 12.0049 16.3066C11.712 16.2581 11.4335 16.4557 11.3832 16.7486C11.3257 17.0936 11.2664 17.2895 11.2287 17.3937C10.7669 18.6371 9.05624 20.6083 8.11828 21.5786C7.91163 21.7924 7.57023 21.7978 7.3564 21.5912C7.14257 21.3846 7.13718 21.0431 7.34382 20.8293C8.00328 20.1465 9.80554 18.1322 10.2188 17.0181C10.4075 16.5132 10.5027 14.8242 10.5171 13.8772C10.5171 13.8449 10.5207 13.8125 10.5279 13.7802C10.5459 13.6867 10.9951 11.4802 12.1594 9.34369C12.3014 9.08314 12.2062 8.75432 11.9438 8.61236C11.6833 8.47041 11.3544 8.56564 11.2125 8.82799C9.97085 11.1082 9.49109 13.4711 9.47132 13.5717C9.45335 13.667 9.44257 13.764 9.44078 13.861C9.41921 15.1135 9.29703 16.409 9.20898 16.6444C8.94663 17.3524 7.63312 18.9803 6.56937 20.0818C5.94945 20.7233 5.96742 21.7475 6.6071 22.3674C6.91796 22.6693 7.32406 22.8203 7.73015 22.8203Z" fill="black"/>
</svg>
