<svg width="17" height="16" viewBox="0 0 17 16" fill="none" xmlns="http://www.w3.org/2000/svg">
<path d="M16.9869 6.40687C17.0718 5.98762 16.7321 5.48453 16.3074 5.48453L11.4662 4.81374L9.25786 0.453585C9.17292 0.285887 9.08799 0.202038 8.91812 0.118189C8.49345 -0.133359 7.98384 0.0343396 7.72904 0.453585L5.60568 4.81374L0.76441 5.48453C0.509607 5.48453 0.339738 5.56838 0.254803 5.73608C-0.0849345 6.07147 -0.0849345 6.57457 0.254803 6.90996L3.73712 10.2639L2.88777 15.0433C2.88777 15.211 2.88777 15.3787 2.97271 15.5464C3.22751 15.9657 3.73712 16.1334 4.16179 15.8818L8.49345 13.6179L12.8251 15.8818C12.91 15.9657 13.0799 15.9657 13.2498 15.9657C13.3347 15.9657 13.3347 15.9657 13.4196 15.9657C13.8443 15.8818 14.1841 15.4626 14.0991 14.9595L13.2498 10.1801L16.7321 6.82611C16.902 6.74226 16.9869 6.57457 16.9869 6.40687Z" fill="black"/>
</svg>
