<svg width="17" height="16" viewBox="0 0 17 16" fill="none" xmlns="http://www.w3.org/2000/svg">
<path fill-rule="evenodd" clip-rule="evenodd" d="M15.7198 6.41267L10.8105 5.73245L8.49602 1.16262L6.27122 5.73107L1.20164 6.4335L4.81502 9.9137L3.93377 14.8726L8.49345 12.4895L13.0696 14.8812L12.1719 9.82986L15.7198 6.41267ZM13.4196 15.9657H13.2498C13.0799 15.9657 12.91 15.9657 12.8251 15.8818L8.49345 13.6179L4.16179 15.8818C3.73712 16.1334 3.22751 15.9657 2.97271 15.5464C2.88777 15.3787 2.88777 15.211 2.88777 15.0433L3.73712 10.2639L0.254803 6.90996C-0.0849345 6.57457 -0.0849345 6.07147 0.254803 5.73608C0.339738 5.56838 0.509607 5.48453 0.76441 5.48453L5.60568 4.81374L7.72904 0.453585C7.98384 0.0343396 8.49345 -0.133359 8.91812 0.118189C9.08799 0.202038 9.17292 0.285887 9.25786 0.453585L11.4662 4.81374L16.3074 5.48453C16.7321 5.48453 17.0718 5.98762 16.9869 6.40687C16.9869 6.57457 16.902 6.74226 16.7321 6.82611L13.2498 10.1801L14.0991 14.9595C14.1841 15.4626 13.8443 15.8818 13.4196 15.9657Z" fill="black"/>
</svg>
